<svg width="426" height="313" viewBox="0 0 426 313" fill="none" xmlns="http://www.w3.org/2000/svg">
<path fill-rule="evenodd" clip-rule="evenodd" d="M217.254 2.07656C221.114 1.9228 224.973 1.76905 228.826 1.57666L229.608 1.65022C257.895 2.16516 286.031 3.56283 313.867 8.7858C335.834 12.9298 357.019 18.6187 376.097 28.1329C427.615 53.7818 440.164 116.408 401.044 154.784C367.743 187.428 326.212 206.085 279.043 214.744L297.037 312L247.735 218.994C242.481 219.475 237.17 219.853 231.805 220.132C190.471 222.126 149.063 217.4 109.992 206.229C79.2375 197.72 50.7702 186.391 28.0806 166.995C-3.63656 139.826 -7.57864 96.1786 16.7058 66.4592C30.6084 49.4171 49.9577 38.0148 71.6241 28.4761C109.239 11.9 150.436 7.16744 191.993 3.48929C200.376 2.74898 208.816 2.41274 217.254 2.07656Z" fill="white"/>
<path d="M228.826 1.57666L228.919 0.581051C228.872 0.576567 228.824 0.575516 228.776 0.577904L228.826 1.57666ZM217.254 2.07656L217.214 1.07735L217.254 2.07656ZM229.608 1.65022L229.515 2.64583C229.54 2.64819 229.565 2.6496 229.59 2.65005L229.608 1.65022ZM313.867 8.7858L314.052 7.80313L314.051 7.80295L313.867 8.7858ZM376.097 28.1329L375.651 29.0277L375.652 29.028L376.097 28.1329ZM401.044 154.784L401.744 155.498L401.744 155.498L401.044 154.784ZM279.043 214.744L278.862 213.76C278.601 213.808 278.37 213.958 278.219 214.177C278.068 214.395 278.011 214.665 278.059 214.926L279.043 214.744ZM297.037 312L296.154 312.468C296.385 312.905 296.9 313.107 297.366 312.944C297.833 312.782 298.111 312.304 298.021 311.818L297.037 312ZM247.735 218.994L248.618 218.525C248.43 218.169 248.045 217.961 247.644 217.998L247.735 218.994ZM231.805 220.132L231.853 221.131L231.857 221.131L231.805 220.132ZM109.992 206.229L110.267 205.267L110.258 205.265L109.992 206.229ZM28.0806 166.995L27.4301 167.755L27.4309 167.755L28.0806 166.995ZM16.7058 66.4592L17.4801 67.0919L17.4807 67.0913L16.7058 66.4592ZM71.6241 28.4761L72.027 29.3914L72.0274 29.3912L71.6241 28.4761ZM191.993 3.48929L191.905 2.49317L191.905 2.49319L191.993 3.48929ZM228.776 0.577904C224.929 0.770002 221.075 0.923557 217.214 1.07735L217.294 3.07577C221.153 2.92204 225.017 2.7681 228.876 2.57542L228.776 0.577904ZM229.702 0.65461L228.919 0.581051L228.732 2.57227L229.515 2.64583L229.702 0.65461ZM314.051 7.80295C286.132 2.56426 257.929 1.16561 229.627 0.650386L229.59 2.65005C257.861 3.16471 285.931 4.5614 313.682 9.76864L314.051 7.80295ZM376.544 27.238C357.348 17.6652 336.061 11.9551 314.052 7.80313L313.681 9.76847C335.607 13.9046 356.69 19.5722 375.651 29.0277L376.544 27.238ZM401.744 155.498C441.417 116.58 428.596 53.1528 376.543 27.2377L375.652 29.028C426.635 54.4108 438.91 116.237 400.343 154.07L401.744 155.498ZM279.223 215.727C326.545 207.04 368.272 188.31 401.744 155.498L400.344 154.07C367.214 186.546 325.879 205.129 278.862 213.76L279.223 215.727ZM278.059 214.926L296.054 312.182L298.021 311.818L280.026 214.562L278.059 214.926ZM297.921 311.532L248.618 218.525L246.851 219.462L296.154 312.468L297.921 311.532ZM231.857 221.131C237.235 220.85 242.559 220.472 247.826 219.99L247.644 217.998C242.404 218.478 237.106 218.855 231.753 219.134L231.857 221.131ZM109.717 207.19C148.895 218.392 190.412 223.13 231.853 221.131L231.757 219.133C190.53 221.122 149.231 216.408 110.267 205.267L109.717 207.19ZM27.4309 167.755C50.2848 187.292 78.9178 198.669 109.725 207.193L110.258 205.265C79.5572 196.771 51.2556 185.491 28.7304 166.235L27.4309 167.755ZM15.9314 65.8264C-8.71677 95.991 -4.6752 140.253 27.4301 167.755L28.7312 166.236C-2.59792 139.399 -6.44051 96.3661 17.4801 67.0919L15.9314 65.8264ZM71.2212 27.5609C49.5008 37.1233 29.9813 48.6038 15.9309 65.827L17.4807 67.0913C31.2355 50.2304 50.4146 38.9063 72.027 29.3914L71.2212 27.5609ZM191.905 2.49319C150.352 6.1709 109.004 10.9109 71.2208 27.5611L72.0274 29.3912C109.475 12.889 150.519 8.16398 192.081 4.4854L191.905 2.49319ZM217.214 1.07735C208.78 1.41337 200.316 1.75038 191.905 2.49317L192.081 4.48542C200.436 3.74758 208.852 3.41211 217.294 3.07577L217.214 1.07735Z" fill="black"/>
</svg>
